 http://www.imdb.com/title/tt0432283/

Roald Dahl's children's classic is brought to life with stunning stop-motion animation in acclaimed director Wes Anderson's Oscar-nominated Fantastic Mr. Fox. With an all-star cast that includes George Clooney, Meryl Streep and Bill Murray, this is one fox you'll definitely want to hunt down!

Fantastic Mr. Fox is visionary director Wes Anderson's first animated film, utilizing classic handmade stop motion techniques to tell the story of the best selling children's book by Roald Dahl (author of Charlie and the Chocolate Factory and James and the Giant Peach).

Three horrible farmers - Boggis, Bunce and Bean - are dedicated to destroying Mr. Fox, the wily and wonderful Mr Fox, who makes a habit of eating their chickens. When they pull out all the stops and surround his den, Mr Fox must use all his cunning in a fantastic plan to keep his family and countryside friends safe.

Format : MPEG-4
Format profile : Base Media / Version 2
Codec ID : mp42
File size : 1.26 GiB
Duration : 1h 23mn
Overall bit rate : 2 164 Kbps
Encoded date : UTC 2010-03-18 10:58:06
Tagged date : UTC 2010-03-18 14:21:56
Writing application : HandBrake 0.9.3 2008112300

Video
ID : 1
Format : AVC
Format/Info : Advanced Video Codec
Format profile : Main@L4.0
Format settings, CABAC : Yes
Format settings, ReFrames : 3 frames
Codec ID : avc1
Codec ID/Info : Advanced Video Coding
Duration : 1h 23mn
Bit rate mode : Variable
Bit rate : 2 000 Kbps
Width : 718 pixels
Height : 552 pixels
Display aspect ratio : 1.850
Frame rate mode : Variable
Frame rate : 25.000 fps
Minimum frame rate : 12.500 fps
Maximum frame rate : 25.000 fps
Resolution : 8 bits
Colorimetry : 4:2:0
Scan type : Progressive
Bits/(Pixel*Frame) : 0.202
Stream size : 1.16 GiB (92%)
Writing library : x264 core 65

Language : English
Encoded date : UTC 2010-03-18 10:58:06
Tagged date : UTC 2010-03-18 14:21:56
Color primaries : BT.601-6 525, BT.1358 525, BT.1700 NTSC, SMPTE 170M
Transfer characteristics : BT.709-5, BT.1361
Matrix coefficients : BT.601-6 525, BT.1358 525, BT.1700 NTSC, SMPTE 170M

Audio
ID : 2
Format : AAC
Format/Info : Advanced Audio Codec
Format version : Version 4
Format profile : LC
Format settings, SBR : No
Codec ID : 40
Duration : 1h 23mn
Bit rate mode : Variable
Bit rate : 160 Kbps
Maximum bit rate : 248 Kbps
Channel(s) : 2 channels
Channel positions : L R
Sampling rate : 48.0 KHz
Stream size : 95.2 MiB (7%)
Language : English
Encoded date : UTC 2010-03-18 10:58:06
Tagged date : UTC 2010-03-18 14:21:51